<?xml version="1.0" encoding="UTF-8" standalone="no"?>
<!DOCTYPE svg PUBLIC "-//W3C//DTD SVG 1.1//EN"
 "http://www.w3.org/Graphics/SVG/1.1/DTD/svg11.dtd">
<!-- Generated by graphviz version 2.40.1 (20161225.0304)
 -->
<!-- Title: %3 Pages: 1 -->
<svg width="254pt" height="132pt"
 viewBox="0.00 0.00 253.66 132.00" xmlns="http://www.w3.org/2000/svg" xmlns:xlink="http://www.w3.org/1999/xlink">
<g id="graph0" class="graph" transform="scale(1 1) rotate(0) translate(4 128)">
<title>%3</title>
<polygon fill="#ffffff" stroke="transparent" points="-4,4 -4,-128 249.6621,-128 249.6621,4 -4,4"/>
<text text-anchor="middle" x="122.8311" y="-6.8" font-family="Times,serif" font-size="14.00" fill="#000000">Category</text>
<!-- a -->
<g id="node1" class="node">
<title>a</title>
<ellipse fill="none" stroke="#000000" cx="218.6621" cy="-40" rx="27" ry="18"/>
<text text-anchor="middle" x="218.6621" y="-35.8" font-family="Times,serif" font-size="14.00" fill="#000000">a</text>
</g>
<!-- a&#45;&gt;a -->
<g id="edge3" class="edge">
<title>a&#45;&gt;a</title>
<path fill="none" stroke="#000000" d="M227.2314,-57.4099C228.8311,-67.0879 225.9746,-76 218.6621,-76 214.0918,-76 211.2621,-72.5187 210.1731,-67.5449"/>
<polygon fill="#000000" stroke="#000000" points="213.672,-67.3818 210.0928,-57.4099 206.6722,-67.4374 213.672,-67.3818"/>
<text text-anchor="middle" x="218.6621" y="-78.8" font-family="Times,serif" font-size="14.00" fill="#000000">id</text>
</g>
<!-- b -->
<g id="node2" class="node">
<title>b</title>
<ellipse fill="none" stroke="#000000" cx="121.6621" cy="-74" rx="27" ry="18"/>
<text text-anchor="middle" x="121.6621" y="-69.8" font-family="Times,serif" font-size="14.00" fill="#000000">b</text>
</g>
<!-- a&#45;&gt;b -->
<g id="edge1" class="edge">
<title>a&#45;&gt;b</title>
<path fill="none" stroke="#000000" d="M194.6846,-48.4045C182.7926,-52.5728 168.2314,-57.6768 155.2493,-62.2272"/>
<polygon fill="#000000" stroke="#000000" points="153.9793,-58.9635 145.7,-65.5744 156.2948,-65.5694 153.9793,-58.9635"/>
<text text-anchor="middle" x="170.1621" y="-60.8" font-family="Times,serif" font-size="14.00" fill="#000000">g</text>
</g>
<!-- c -->
<g id="node3" class="node">
<title>c</title>
<ellipse fill="none" stroke="#000000" cx="27" cy="-40" rx="27" ry="18"/>
<text text-anchor="middle" x="27" y="-35.8" font-family="Times,serif" font-size="14.00" fill="#000000">c</text>
</g>
<!-- a&#45;&gt;c -->
<g id="edge6" class="edge">
<title>a&#45;&gt;c</title>
<path fill="none" stroke="#000000" d="M191.7842,-36.6795C178.782,-35.2351 162.934,-33.7118 148.6621,-33 124.6919,-31.8045 118.6302,-31.7635 94.6621,-33 84.5958,-33.5193 73.7206,-34.4705 63.6948,-35.5078"/>
<polygon fill="#000000" stroke="#000000" points="63.1857,-32.0424 53.6239,-36.6054 63.9443,-39.0012 63.1857,-32.0424"/>
<text text-anchor="middle" x="121.6621" y="-35.8" font-family="Times,serif" font-size="14.00" fill="#000000">f . g</text>
</g>
<!-- b&#45;&gt;b -->
<g id="edge4" class="edge">
<title>b&#45;&gt;b</title>
<path fill="none" stroke="#000000" d="M129.8744,-91.4099C131.4073,-101.0879 128.6699,-110 121.6621,-110 117.2822,-110 114.5705,-106.5187 113.5268,-101.5449"/>
<polygon fill="#000000" stroke="#000000" points="117.0258,-101.383 113.4498,-91.4099 110.026,-101.4362 117.0258,-101.383"/>
<text text-anchor="middle" x="121.6621" y="-112.8" font-family="Times,serif" font-size="14.00" fill="#000000">id</text>
</g>
<!-- b&#45;&gt;c -->
<g id="edge2" class="edge">
<title>b&#45;&gt;c</title>
<path fill="none" stroke="#000000" d="M97.7749,-65.4204C86.4518,-61.3534 72.7338,-56.4263 60.401,-51.9967"/>
<polygon fill="#000000" stroke="#000000" points="61.4741,-48.6633 50.8796,-48.5769 59.1078,-55.2512 61.4741,-48.6633"/>
<text text-anchor="middle" x="74.3311" y="-59.8" font-family="Times,serif" font-size="14.00" fill="#000000">f</text>
</g>
<!-- c&#45;&gt;c -->
<g id="edge5" class="edge">
<title>c&#45;&gt;c</title>
<path fill="none" stroke="#000000" d="M35.2123,-57.4099C36.7452,-67.0879 34.0078,-76 27,-76 22.6201,-76 19.9084,-72.5187 18.8647,-67.5449"/>
<polygon fill="#000000" stroke="#000000" points="22.3637,-67.383 18.7877,-57.4099 15.3639,-67.4362 22.3637,-67.383"/>
<text text-anchor="middle" x="27" y="-78.8" font-family="Times,serif" font-size="14.00" fill="#000000">id</text>
</g>
</g>
</svg>
