<?xml version="1.0" encoding="UTF-8" standalone="no"?>
<!DOCTYPE svg PUBLIC "-//W3C//DTD SVG 1.1//EN"
 "http://www.w3.org/Graphics/SVG/1.1/DTD/svg11.dtd">
<!-- Generated by graphviz version 2.43.0 (0)
 -->
<!-- Title: %3 Pages: 1 -->
<svg width="644pt" height="186pt"
 viewBox="0.00 0.00 644.00 186.00" xmlns="http://www.w3.org/2000/svg" xmlns:xlink="http://www.w3.org/1999/xlink">
<g id="graph0" class="graph" transform="scale(1 1) rotate(0) translate(4 182)">
<title>%3</title>
<polygon fill="white" stroke="transparent" points="-4,4 -4,-182 640,-182 640,4 -4,4"/>
<text text-anchor="middle" x="318" y="-7.8" font-family="Times,serif" font-size="14.00">Functor C D T</text>
<g id="clust1" class="cluster">
<title>cluster_C</title>
<polygon fill="none" stroke="black" stroke-dasharray="1,5" points="366,-31 366,-157 628,-157 628,-31 366,-31"/>
<text text-anchor="middle" x="497" y="-141.8" font-family="Times,serif" font-size="14.00">C</text>
</g>
<g id="clust2" class="cluster">
<title>cluster_D</title>
<polygon fill="none" stroke="black" stroke-dasharray="1,5" points="8,-44 8,-170 337,-170 337,-44 8,-44"/>
<text text-anchor="middle" x="172.5" y="-154.8" font-family="Times,serif" font-size="14.00">D</text>
</g>
<!-- a -->
<g id="node1" class="node">
<title>a</title>
<ellipse fill="none" stroke="black" cx="593" cy="-70" rx="27" ry="18"/>
<text text-anchor="middle" x="593" y="-66.3" font-family="Times,serif" font-size="14.00">a</text>
</g>
<!-- a&#45;&gt;a -->
<g id="edge1" class="edge">
<title>a&#45;&gt;a</title>
<path fill="none" stroke="black" d="M601.57,-87.41C603.17,-97.09 600.31,-106 593,-106 588.43,-106 585.6,-102.52 584.51,-97.54"/>
<polygon fill="black" stroke="black" points="588.01,-97.38 584.43,-87.41 581.01,-97.44 588.01,-97.38"/>
<text text-anchor="middle" x="593" y="-109.8" font-family="Times,serif" font-size="14.00">id</text>
</g>
<!-- b -->
<g id="node2" class="node">
<title>b</title>
<ellipse fill="none" stroke="black" cx="496" cy="-57" rx="27" ry="18"/>
<text text-anchor="middle" x="496" y="-53.3" font-family="Times,serif" font-size="14.00">b</text>
</g>
<!-- a&#45;&gt;b -->
<g id="edge2" class="edge">
<title>a&#45;&gt;b</title>
<path fill="none" stroke="black" d="M566.04,-66.45C555.8,-65.05 543.86,-63.41 532.82,-61.9"/>
<polygon fill="black" stroke="black" points="532.98,-58.39 522.6,-60.5 532.03,-65.33 532.98,-58.39"/>
<text text-anchor="middle" x="544.5" y="-67.8" font-family="Times,serif" font-size="14.00">g</text>
</g>
<!-- c -->
<g id="node3" class="node">
<title>c</title>
<ellipse fill="none" stroke="black" cx="401" cy="-83" rx="27" ry="18"/>
<text text-anchor="middle" x="401" y="-79.3" font-family="Times,serif" font-size="14.00">c</text>
</g>
<!-- a&#45;&gt;c -->
<g id="edge4" class="edge">
<title>a&#45;&gt;c</title>
<path fill="none" stroke="black" d="M568.49,-78.01C561.93,-79.95 554.75,-81.81 548,-83 503.28,-90.89 491.31,-92.07 446,-89 443.28,-88.82 440.47,-88.57 437.66,-88.28"/>
<polygon fill="black" stroke="black" points="437.88,-84.78 427.53,-87.08 437.05,-91.73 437.88,-84.78"/>
<text text-anchor="middle" x="496" y="-93.8" font-family="Times,serif" font-size="14.00">f . g</text>
</g>
<!-- b&#45;&gt;c -->
<g id="edge3" class="edge">
<title>b&#45;&gt;c</title>
<path fill="none" stroke="black" d="M470.57,-63.83C459.99,-66.79 447.44,-70.3 435.98,-73.5"/>
<polygon fill="black" stroke="black" points="434.96,-70.15 426.27,-76.21 436.84,-76.89 434.96,-70.15"/>
<text text-anchor="middle" x="448.5" y="-73.8" font-family="Times,serif" font-size="14.00">f</text>
</g>
<!-- T a -->
<g id="node4" class="node">
<title>T a</title>
<ellipse fill="none" stroke="black" cx="302" cy="-83" rx="27" ry="18"/>
<text text-anchor="middle" x="302" y="-79.3" font-family="Times,serif" font-size="14.00">T a</text>
</g>
<!-- c&#45;&gt;T a -->
<g id="edge9" class="edge">
<title>c&#45;&gt;T a</title>
<path fill="none" stroke="black" d="M366,-83C357.4,-83 348.12,-83 339.4,-83"/>
<polygon fill="black" stroke="black" points="347,-79.5 337,-83 347,-86.5 347,-79.5"/>
<text text-anchor="middle" x="351.5" y="-86.8" font-family="Times,serif" font-size="14.00">T</text>
</g>
<!-- T a&#45;&gt;T a -->
<g id="edge5" class="edge">
<title>T a&#45;&gt;T a</title>
<path fill="none" stroke="black" d="M310.57,-100.41C312.17,-110.09 309.31,-119 302,-119 297.43,-119 294.6,-115.52 293.51,-110.54"/>
<polygon fill="black" stroke="black" points="297.01,-110.38 293.43,-100.41 290.01,-110.44 297.01,-110.38"/>
<text text-anchor="middle" x="302" y="-122.8" font-family="Times,serif" font-size="14.00">T id</text>
</g>
<!-- T b -->
<g id="node5" class="node">
<title>T b</title>
<ellipse fill="none" stroke="black" cx="171.5" cy="-70" rx="27" ry="18"/>
<text text-anchor="middle" x="171.5" y="-66.3" font-family="Times,serif" font-size="14.00">T b</text>
</g>
<!-- T a&#45;&gt;T b -->
<g id="edge6" class="edge">
<title>T a&#45;&gt;T b</title>
<path fill="none" stroke="black" d="M275,-80.37C255.92,-78.44 229.78,-75.8 208.67,-73.66"/>
<polygon fill="black" stroke="black" points="208.77,-70.15 198.47,-72.63 208.06,-77.12 208.77,-70.15"/>
<text text-anchor="middle" x="247.5" y="-81.8" font-family="Times,serif" font-size="14.00">T g</text>
</g>
<!-- T c -->
<g id="node6" class="node">
<title>T c</title>
<ellipse fill="none" stroke="black" cx="43" cy="-86" rx="27" ry="18"/>
<text text-anchor="middle" x="43" y="-82.3" font-family="Times,serif" font-size="14.00">T c</text>
</g>
<!-- T a&#45;&gt;T c -->
<g id="edge8" class="edge">
<title>T a&#45;&gt;T c</title>
<path fill="none" stroke="black" d="M278.02,-91.72C271.34,-93.87 263.96,-95.87 257,-97 190.31,-107.8 172.56,-98.56 105,-99 97.44,-99.05 95.48,-100.08 88,-99 84.5,-98.49 80.9,-97.77 77.33,-96.93"/>
<polygon fill="black" stroke="black" points="78.04,-93.49 67.47,-94.29 76.22,-100.26 78.04,-93.49"/>
<text text-anchor="middle" x="171.5" y="-105.8" font-family="Times,serif" font-size="14.00">T f . g = T f . T g</text>
</g>
<!-- T b&#45;&gt;T c -->
<g id="edge7" class="edge">
<title>T b&#45;&gt;T c</title>
<path fill="none" stroke="black" d="M144.9,-73.24C126.13,-75.61 100.39,-78.87 79.61,-81.5"/>
<polygon fill="black" stroke="black" points="79.04,-78.04 69.56,-82.77 79.92,-84.98 79.04,-78.04"/>
<text text-anchor="middle" x="96.5" y="-83.8" font-family="Times,serif" font-size="14.00">T f</text>
</g>
</g>
</svg>
