<?xml version="1.0" encoding="UTF-8" standalone="no"?>
<!DOCTYPE svg PUBLIC "-//W3C//DTD SVG 1.1//EN"
 "http://www.w3.org/Graphics/SVG/1.1/DTD/svg11.dtd">
<!-- Generated by graphviz version 2.40.1 (20161225.0304)
 -->
<!-- Title: %3 Pages: 1 -->
<svg width="792pt" height="190pt"
 viewBox="0.00 0.00 791.63 190.00" xmlns="http://www.w3.org/2000/svg" xmlns:xlink="http://www.w3.org/1999/xlink">
<g id="graph0" class="graph" transform="scale(1 1) rotate(0) translate(4 186)">
<title>%3</title>
<polygon fill="#ffffff" stroke="transparent" points="-4,4 -4,-186 787.6318,-186 787.6318,4 -4,4"/>
<text text-anchor="middle" x="391.8159" y="-6.8" font-family="Times,serif" font-size="14.00" fill="#000000">Functor C D T</text>
<g id="clust1" class="cluster">
<title>cluster_C</title>
<polygon fill="none" stroke="#000000" stroke-dasharray="1,5" points="437.9697,-30 437.9697,-154 775.6318,-154 775.6318,-30 437.9697,-30"/>
<text text-anchor="middle" x="606.8008" y="-138.8" font-family="Times,serif" font-size="14.00" fill="#000000">C</text>
</g>
<g id="clust2" class="cluster">
<title>cluster_D</title>
<polygon fill="none" stroke="#000000" stroke-dasharray="1,5" points="8,-50 8,-174 409.418,-174 409.418,-50 8,-50"/>
<text text-anchor="middle" x="208.709" y="-158.8" font-family="Times,serif" font-size="14.00" fill="#000000">D</text>
</g>
<!-- a -->
<g id="node1" class="node">
<title>a</title>
<ellipse fill="none" stroke="#000000" cx="740.6318" cy="-65" rx="27" ry="18"/>
<text text-anchor="middle" x="740.6318" y="-60.8" font-family="Times,serif" font-size="14.00" fill="#000000">a</text>
</g>
<!-- a&#45;&gt;a -->
<g id="edge1" class="edge">
<title>a&#45;&gt;a</title>
<path fill="none" stroke="#000000" d="M748.4871,-82.4099C749.9534,-92.0879 747.335,-101 740.6318,-101 736.4424,-101 733.8485,-97.5187 732.8503,-92.5449"/>
<polygon fill="#000000" stroke="#000000" points="736.3493,-92.3842 732.7766,-82.4099 729.3495,-92.4351 736.3493,-92.3842"/>
<text text-anchor="middle" x="740.6318" y="-103.8" font-family="Times,serif" font-size="14.00" fill="#000000">id</text>
</g>
<!-- b -->
<g id="node2" class="node">
<title>b</title>
<ellipse fill="none" stroke="#000000" cx="605.6318" cy="-56" rx="27" ry="18"/>
<text text-anchor="middle" x="605.6318" y="-51.8" font-family="Times,serif" font-size="14.00" fill="#000000">b</text>
</g>
<!-- a&#45;&gt;b -->
<g id="edge2" class="edge">
<title>a&#45;&gt;b</title>
<path fill="none" stroke="#000000" d="M713.637,-63.2003C693.3106,-61.8453 665.2079,-59.9717 642.7641,-58.4755"/>
<polygon fill="#000000" stroke="#000000" points="642.7906,-54.9696 632.5799,-57.7965 642.3249,-61.9541 642.7906,-54.9696"/>
<text text-anchor="middle" x="673.1318" y="-63.8" font-family="Times,serif" font-size="14.00" fill="#000000">g</text>
</g>
<!-- c -->
<g id="node3" class="node">
<title>c</title>
<ellipse fill="none" stroke="#000000" cx="472.9697" cy="-90" rx="27" ry="18"/>
<text text-anchor="middle" x="472.9697" y="-85.8" font-family="Times,serif" font-size="14.00" fill="#000000">c</text>
</g>
<!-- a&#45;&gt;c -->
<g id="edge4" class="edge">
<title>a&#45;&gt;c</title>
<path fill="none" stroke="#000000" d="M727.3535,-80.7388C714.8425,-93.7155 694.8215,-110 673.1318,-110 673.1318,-110 673.1318,-110 539.3008,-110 527.6976,-110 515.4202,-107.16 504.6244,-103.6203"/>
<polygon fill="#000000" stroke="#000000" points="505.7827,-100.3175 495.1882,-100.2344 503.4184,-106.9062 505.7827,-100.3175"/>
<text text-anchor="middle" x="605.6318" y="-112.8" font-family="Times,serif" font-size="14.00" fill="#000000">f . g</text>
</g>
<!-- b&#45;&gt;c -->
<g id="edge3" class="edge">
<title>b&#45;&gt;c</title>
<path fill="none" stroke="#000000" d="M580.3668,-62.4752C560.0267,-67.6881 531.193,-75.0779 508.5224,-80.8882"/>
<polygon fill="#000000" stroke="#000000" points="507.4105,-77.56 498.5925,-83.4331 509.1484,-84.3408 507.4105,-77.56"/>
<text text-anchor="middle" x="539.3008" y="-76.8" font-family="Times,serif" font-size="14.00" fill="#000000">f</text>
</g>
<!-- T a -->
<g id="node4" class="node">
<title>T a</title>
<ellipse fill="none" stroke="#000000" cx="374.418" cy="-90" rx="27" ry="18"/>
<text text-anchor="middle" x="374.418" y="-85.8" font-family="Times,serif" font-size="14.00" fill="#000000">T a</text>
</g>
<!-- c&#45;&gt;T a -->
<g id="edge9" class="edge">
<title>c&#45;&gt;T a</title>
<path fill="none" stroke="#000000" d="M437.9698,-90C429.4255,-90 420.2545,-90 411.6118,-90"/>
<polygon fill="#000000" stroke="#000000" points="419.4181,-86.5005 409.418,-90 419.4178,-93.5005 419.4181,-86.5005"/>
<text text-anchor="middle" x="423.6938" y="-92.8" font-family="Times,serif" font-size="14.00" fill="#000000">T</text>
</g>
<!-- T a&#45;&gt;T a -->
<g id="edge5" class="edge">
<title>T a&#45;&gt;T a</title>
<path fill="none" stroke="#000000" d="M382.2732,-107.4099C383.7395,-117.0879 381.1211,-126 374.418,-126 370.2285,-126 367.6347,-122.5187 366.6364,-117.5449"/>
<polygon fill="#000000" stroke="#000000" points="370.1354,-117.3842 366.5627,-107.4099 363.1356,-117.4351 370.1354,-117.3842"/>
<text text-anchor="middle" x="374.418" y="-128.8" font-family="Times,serif" font-size="14.00" fill="#000000">T id</text>
</g>
<!-- T b -->
<g id="node5" class="node">
<title>T b</title>
<ellipse fill="none" stroke="#000000" cx="207.54" cy="-76" rx="27" ry="18"/>
<text text-anchor="middle" x="207.54" y="-71.8" font-family="Times,serif" font-size="14.00" fill="#000000">T b</text>
</g>
<!-- T a&#45;&gt;T b -->
<g id="edge6" class="edge">
<title>T a&#45;&gt;T b</title>
<path fill="none" stroke="#000000" d="M347.6061,-87.7507C319.7105,-85.4104 275.8261,-81.7288 244.6182,-79.1106"/>
<polygon fill="#000000" stroke="#000000" points="244.8196,-75.6153 234.562,-78.267 244.2344,-82.5908 244.8196,-75.6153"/>
<text text-anchor="middle" x="301.0151" y="-86.8" font-family="Times,serif" font-size="14.00" fill="#000000">T g</text>
</g>
<!-- T c -->
<g id="node6" class="node">
<title>T c</title>
<ellipse fill="none" stroke="#000000" cx="43" cy="-101" rx="27" ry="18"/>
<text text-anchor="middle" x="43" y="-96.8" font-family="Times,serif" font-size="14.00" fill="#000000">T c</text>
</g>
<!-- T a&#45;&gt;T c -->
<g id="edge8" class="edge">
<title>T a&#45;&gt;T c</title>
<path fill="none" stroke="#000000" d="M358.5621,-104.6674C344.5298,-116.0834 322.9296,-130 301.0151,-130 301.0151,-130 301.0151,-130 115.2339,-130 100.2656,-130 84.7272,-124.5709 71.9144,-118.4108"/>
<polygon fill="#000000" stroke="#000000" points="73.191,-115.1303 62.7022,-113.6355 69.9695,-121.345 73.191,-115.1303"/>
<text text-anchor="middle" x="207.54" y="-132.8" font-family="Times,serif" font-size="14.00" fill="#000000">T f . g = T f . T g</text>
</g>
<!-- T b&#45;&gt;T c -->
<g id="edge7" class="edge">
<title>T b&#45;&gt;T c</title>
<path fill="none" stroke="#000000" d="M181.1038,-80.0167C153.5173,-84.2081 110.0725,-90.8091 79.2851,-95.4869"/>
<polygon fill="#000000" stroke="#000000" points="78.7314,-92.0308 69.3706,-96.9933 79.7829,-98.9513 78.7314,-92.0308"/>
<text text-anchor="middle" x="115.2339" y="-92.8" font-family="Times,serif" font-size="14.00" fill="#000000">T f</text>
</g>
</g>
</svg>
