<?xml version="1.0" encoding="UTF-8" standalone="no"?>
<!DOCTYPE svg PUBLIC "-//W3C//DTD SVG 1.1//EN"
 "http://www.w3.org/Graphics/SVG/1.1/DTD/svg11.dtd">
<!-- Generated by graphviz version 2.40.1 (20161225.0304)
 -->
<!-- Title: g Pages: 1 -->
<svg width="498pt" height="425pt"
 viewBox="0.00 0.00 498.41 425.00" xmlns="http://www.w3.org/2000/svg" xmlns:xlink="http://www.w3.org/1999/xlink">
<g id="graph0" class="graph" transform="scale(1 1) rotate(0) translate(4 421)">
<title>g</title>
<polygon fill="#ffffff" stroke="transparent" points="-4,4 -4,-421 494.4089,-421 494.4089,4 -4,4"/>
<g id="clust2" class="cluster">
<title>clusterA</title>
<polygon fill="none" stroke="#000000" stroke-dasharray="1,5" points="9.7912,-341 9.7912,-409 456.0177,-409 456.0177,-341 9.7912,-341"/>
</g>
<g id="clust3" class="cluster">
<title>clusterB</title>
<polygon fill="none" stroke="#000000" stroke-dasharray="1,5" points="9.7912,-166 9.7912,-284 456.0177,-284 456.0177,-166 9.7912,-166"/>
</g>
<g id="clust4" class="cluster">
<title>clusterC</title>
<polygon fill="none" stroke="#000000" stroke-dasharray="1,5" points="8,-8 8,-76 457.8089,-76 457.8089,-8 8,-8"/>
</g>
<!-- 0 -->
<!-- 01 -->
<!-- 0&#45;&gt;01 -->
<!-- a -->
<g id="node4" class="node">
<title>a</title>
<ellipse fill="none" stroke="#000000" cx="421.0177" cy="-367" rx="27" ry="18"/>
<text text-anchor="middle" x="421.0177" y="-362.8" font-family="Times,serif" font-size="14.00" fill="#000000">a</text>
</g>
<!-- 0&#45;&gt;a -->
<!-- 02 -->
<!-- 01&#45;&gt;02 -->
<!-- T a -->
<g id="node7" class="node">
<title>T a</title>
<ellipse fill="none" stroke="#000000" cx="421.0177" cy="-192" rx="27" ry="18"/>
<text text-anchor="middle" x="421.0177" y="-187.8" font-family="Times,serif" font-size="14.00" fill="#000000">T a</text>
</g>
<!-- 01&#45;&gt;T a -->
<!-- T T a -->
<g id="node10" class="node">
<title>T T a</title>
<ellipse fill="none" stroke="#000000" cx="421.0177" cy="-42" rx="28.584" ry="18"/>
<text text-anchor="middle" x="421.0177" y="-37.8" font-family="Times,serif" font-size="14.00" fill="#000000">T T a</text>
</g>
<!-- 02&#45;&gt;T T a -->
<!-- b -->
<g id="node5" class="node">
<title>b</title>
<ellipse fill="none" stroke="#000000" cx="256.0509" cy="-367" rx="27" ry="18"/>
<text text-anchor="middle" x="256.0509" y="-362.8" font-family="Times,serif" font-size="14.00" fill="#000000">b</text>
</g>
<!-- a&#45;&gt;b -->
<!-- a&#45;&gt;b -->
<g id="edge5" class="edge">
<title>a&#45;&gt;b</title>
<path fill="none" stroke="#000000" d="M393.7768,-367C366.353,-367 323.8511,-367 293.3155,-367"/>
<polygon fill="#000000" stroke="#000000" points="293.0582,-363.5001 283.0581,-367 293.0581,-370.5001 293.0582,-363.5001"/>
<text text-anchor="middle" x="338.7826" y="-369.8" font-family="Times,serif" font-size="14.00" fill="#000000">g&#39;</text>
</g>
<!-- T b -->
<g id="node8" class="node">
<title>T b</title>
<ellipse fill="none" stroke="#000000" cx="256.0509" cy="-192" rx="27" ry="18"/>
<text text-anchor="middle" x="256.0509" y="-187.8" font-family="Times,serif" font-size="14.00" fill="#000000">T b</text>
</g>
<!-- a&#45;&gt;T b -->
<g id="edge18" class="edge">
<title>a&#45;&gt;T b</title>
<path fill="none" stroke="#0000ff" d="M401.8594,-353.8788C376.7241,-335.9166 332.4057,-301.5856 303.3388,-264 291.8563,-249.1524 280.2667,-231.5575 271.4348,-217.4777"/>
<polygon fill="#0000ff" stroke="#0000ff" points="274.2994,-215.4555 266.0582,-208.7972 268.3484,-219.1415 274.2994,-215.4555"/>
<text text-anchor="middle" x="338.7826" y="-318.8" font-family="Times,serif" font-size="14.00" fill="#0000ff">g</text>
</g>
<!-- T c -->
<g id="node9" class="node">
<title>T c</title>
<ellipse fill="none" stroke="#000000" cx="44.7912" cy="-192" rx="27" ry="18"/>
<text text-anchor="middle" x="44.7912" y="-187.8" font-family="Times,serif" font-size="14.00" fill="#000000">T c</text>
</g>
<!-- a&#45;&gt;T c -->
<g id="edge19" class="edge">
<title>a&#45;&gt;T c</title>
<path fill="none" stroke="#0000ff" stroke-dasharray="5,2" d="M409.7271,-350.4555C391.0309,-322.8996 352.6934,-265.7147 322.3388,-216 305.0161,-187.629 310.1255,-173.1496 285.3388,-151 225.8512,-97.8415 182.5115,-75.492 110.5825,-110 86.6826,-121.466 68.7254,-146.3142 57.6603,-165.6702"/>
<polygon fill="#0000ff" stroke="#0000ff" points="54.4814,-164.19 52.7862,-174.6483 60.6333,-167.5298 54.4814,-164.19"/>
<text text-anchor="middle" x="256.0509" y="-153.8" font-family="Times,serif" font-size="14.00" fill="#0000ff">f &lt;=&lt; g</text>
</g>
<!-- c -->
<g id="node6" class="node">
<title>c</title>
<ellipse fill="none" stroke="#000000" cx="44.7912" cy="-367" rx="27" ry="18"/>
<text text-anchor="middle" x="44.7912" y="-362.8" font-family="Times,serif" font-size="14.00" fill="#000000">c</text>
</g>
<!-- b&#45;&gt;c -->
<!-- b&#45;&gt;c -->
<g id="edge6" class="edge">
<title>b&#45;&gt;c</title>
<path fill="none" stroke="#000000" d="M228.8649,-367C191.4694,-367 124.024,-367 81.9808,-367"/>
<polygon fill="#000000" stroke="#000000" points="81.8729,-363.5001 71.8729,-367 81.8729,-370.5001 81.8729,-363.5001"/>
<text text-anchor="middle" x="150.1728" y="-369.8" font-family="Times,serif" font-size="14.00" fill="#000000">f&#39;</text>
</g>
<!-- b&#45;&gt;T c -->
<g id="edge20" class="edge">
<title>b&#45;&gt;T c</title>
<path fill="none" stroke="#0000ff" d="M239.1198,-352.9748C201.9582,-322.1915 113.1066,-248.59 69.6198,-212.5671"/>
<polygon fill="#0000ff" stroke="#0000ff" points="71.7368,-209.7759 61.803,-206.092 67.2713,-215.1666 71.7368,-209.7759"/>
<text text-anchor="middle" x="150.1728" y="-313.8" font-family="Times,serif" font-size="14.00" fill="#0000ff">f</text>
</g>
<!-- c&#45;&gt;T c -->
<g id="edge23" class="edge">
<title>c&#45;&gt;T c</title>
<path fill="none" stroke="#000000" stroke-dasharray="5,2" d="M44.7912,-348.7672C44.7912,-318.2651 44.7912,-256.6779 44.7912,-220.4392"/>
<polygon fill="#000000" stroke="#000000" points="48.2913,-220.0689 44.7912,-210.0689 41.2913,-220.069 48.2913,-220.0689"/>
<text text-anchor="middle" x="54.7912" y="-275.3" font-family="Times,serif" font-size="14.00" fill="#000000">η</text>
</g>
<!-- T a&#45;&gt;T b -->
<!-- T a&#45;&gt;T b -->
<g id="edge9" class="edge">
<title>T a&#45;&gt;T b</title>
<path fill="none" stroke="#000000" d="M394.3333,-195.3473C387.7699,-196.0336 380.753,-196.6523 374.2265,-197 342.7654,-198.6762 334.8007,-198.6587 303.3388,-197 300.0412,-196.8261 296.6196,-196.5846 293.1932,-196.3006"/>
<polygon fill="#000000" stroke="#000000" points="293.3023,-192.7956 283.0193,-195.3473 292.6492,-199.7651 293.3023,-192.7956"/>
<text text-anchor="middle" x="338.7826" y="-200.8" font-family="Times,serif" font-size="14.00" fill="#000000">T g&#39;</text>
</g>
<!-- T b&#45;&gt;T c -->
<!-- T b&#45;&gt;T c -->
<g id="edge10" class="edge">
<title>T b&#45;&gt;T c</title>
<path fill="none" stroke="#000000" d="M229.0686,-189.322C222.4359,-188.7729 215.3485,-188.278 208.7631,-188 165.2489,-186.1629 115.2006,-187.9487 81.9581,-189.6842"/>
<polygon fill="#000000" stroke="#000000" points="81.5788,-186.1996 71.7851,-190.2412 81.9616,-193.1892 81.5788,-186.1996"/>
<text text-anchor="middle" x="150.1728" y="-190.8" font-family="Times,serif" font-size="14.00" fill="#000000">T f&#39;</text>
</g>
<!-- T b&#45;&gt;T c -->
<g id="edge24" class="edge">
<title>T b&#45;&gt;T c</title>
<path fill="none" stroke="#0000ff" stroke-dasharray="5,2" d="M230.7507,-198.6357C218.4727,-201.5232 203.4504,-204.5704 189.7631,-206 154.7621,-209.6558 145.5807,-209.6825 110.5825,-206 100.4976,-204.9389 89.6845,-202.9868 79.7976,-200.8703"/>
<polygon fill="#0000ff" stroke="#0000ff" points="80.4243,-197.4238 69.899,-198.6356 78.8827,-204.2519 80.4243,-197.4238"/>
<text text-anchor="middle" x="150.1728" y="-210.8" font-family="Times,serif" font-size="14.00" fill="#0000ff">μ . T f (&gt;&gt;= f)</text>
</g>
<!-- T T c -->
<g id="node12" class="node">
<title>T T c</title>
<ellipse fill="none" stroke="#000000" cx="44.7912" cy="-34" rx="28.584" ry="18"/>
<text text-anchor="middle" x="44.7912" y="-29.8" font-family="Times,serif" font-size="14.00" fill="#000000">T T c</text>
</g>
<!-- T b&#45;&gt;T T c -->
<g id="edge21" class="edge">
<title>T b&#45;&gt;T T c</title>
<path fill="none" stroke="#a020f0" d="M238.0391,-178.529C200.8078,-150.684 115.2097,-86.6656 71.5135,-53.9855"/>
<polygon fill="#a020f0" stroke="#a020f0" points="73.4641,-51.0737 63.3597,-47.8873 69.2716,-56.6794 73.4641,-51.0737"/>
<text text-anchor="middle" x="150.1728" y="-144.8" font-family="Times,serif" font-size="14.00" fill="#a020f0">T f</text>
</g>
<!-- T T b -->
<g id="node11" class="node">
<title>T T b</title>
<ellipse fill="none" stroke="#000000" cx="256.0509" cy="-34" rx="29.0772" ry="18"/>
<text text-anchor="middle" x="256.0509" y="-29.8" font-family="Times,serif" font-size="14.00" fill="#000000">T T b</text>
</g>
<!-- T T a&#45;&gt;T T b -->
<!-- T T a&#45;&gt;T T b -->
<g id="edge13" class="edge">
<title>T T a&#45;&gt;T T b</title>
<path fill="none" stroke="#000000" d="M392.2827,-40.6065C365.4453,-39.305 325.162,-37.3515 295.3552,-35.906"/>
<polygon fill="#000000" stroke="#000000" points="295.4462,-32.4064 285.2884,-35.4179 295.1071,-39.3982 295.4462,-32.4064"/>
<text text-anchor="middle" x="338.7826" y="-41.8" font-family="Times,serif" font-size="14.00" fill="#000000">T T g&#39;</text>
</g>
<!-- T T b&#45;&gt;T T c -->
<!-- T T b&#45;&gt;T T c -->
<g id="edge14" class="edge">
<title>T T b&#45;&gt;T T c</title>
<path fill="none" stroke="#000000" d="M226.6762,-34C189.5465,-34 125.5009,-34 84.1629,-34"/>
<polygon fill="#000000" stroke="#000000" points="83.9165,-30.5001 73.9165,-34 83.9165,-37.5001 83.9165,-30.5001"/>
<text text-anchor="middle" x="150.1728" y="-36.8" font-family="Times,serif" font-size="14.00" fill="#000000">T T f&#39;</text>
</g>
<!-- T T c&#45;&gt;T c -->
<g id="edge22" class="edge">
<title>T T c&#45;&gt;T c</title>
<path fill="none" stroke="#a020f0" stroke-dasharray="5,2" d="M44.7912,-52.1246C44.7912,-79.3612 44.7912,-131.093 44.7912,-163.4377"/>
<polygon fill="#a020f0" stroke="#a020f0" points="41.2913,-163.6001 44.7912,-173.6001 48.2913,-163.6001 41.2913,-163.6001"/>
<text text-anchor="middle" x="54.7912" y="-108.8" font-family="Times,serif" font-size="14.00" fill="#000000">μ</text>
</g>
</g>
</svg>
