<?xml version="1.0" encoding="UTF-8" standalone="no"?>
<!DOCTYPE svg PUBLIC "-//W3C//DTD SVG 1.1//EN"
 "http://www.w3.org/Graphics/SVG/1.1/DTD/svg11.dtd">
<!-- Generated by graphviz version 2.43.0 (0)
 -->
<!-- Title: g Pages: 1 -->
<svg width="432pt" height="324pt"
 viewBox="0.00 0.00 432.28 324.00" xmlns="http://www.w3.org/2000/svg" xmlns:xlink="http://www.w3.org/1999/xlink">
<g id="graph0" class="graph" transform="scale(1 1) rotate(0) translate(4 320)">
<title>g</title>
<polygon fill="white" stroke="transparent" points="-4,4 -4,-320 428.28,-320 428.28,4 -4,4"/>
<g id="clust2" class="cluster">
<title>clusterA</title>
<polygon fill="none" stroke="black" stroke-dasharray="1,5" points="10.9,-252 10.9,-308 388.79,-308 388.79,-252 10.9,-252"/>
</g>
<g id="clust3" class="cluster">
<title>clusterB</title>
<polygon fill="none" stroke="black" stroke-dasharray="1,5" points="10.9,-127 10.9,-221 388.79,-221 388.79,-127 10.9,-127"/>
</g>
<g id="clust4" class="cluster">
<title>clusterC</title>
<polygon fill="none" stroke="black" stroke-dasharray="1,5" points="8,-8 8,-64 391.68,-64 391.68,-8 8,-8"/>
</g>
<!-- 0 -->
<!-- 01 -->
<!-- 0&#45;&gt;01 -->
<!-- a -->
<g id="node4" class="node">
<title>a</title>
<ellipse fill="none" stroke="black" cx="353.79" cy="-278" rx="27" ry="18"/>
<text text-anchor="middle" x="353.79" y="-274.3" font-family="Times,serif" font-size="14.00">a</text>
</g>
<!-- 0&#45;&gt;a -->
<!-- 02 -->
<!-- 01&#45;&gt;02 -->
<!-- T a -->
<g id="node7" class="node">
<title>T a</title>
<ellipse fill="none" stroke="black" cx="353.79" cy="-153" rx="27" ry="18"/>
<text text-anchor="middle" x="353.79" y="-149.3" font-family="Times,serif" font-size="14.00">T a</text>
</g>
<!-- 01&#45;&gt;T a -->
<!-- T T a -->
<g id="node10" class="node">
<title>T T a</title>
<ellipse fill="none" stroke="black" cx="353.79" cy="-36" rx="29.8" ry="18"/>
<text text-anchor="middle" x="353.79" y="-32.3" font-family="Times,serif" font-size="14.00">T T a</text>
</g>
<!-- 02&#45;&gt;T T a -->
<!-- b -->
<g id="node5" class="node">
<title>b</title>
<ellipse fill="none" stroke="black" cx="224.34" cy="-278" rx="27" ry="18"/>
<text text-anchor="middle" x="224.34" y="-274.3" font-family="Times,serif" font-size="14.00">b</text>
</g>
<!-- a&#45;&gt;b -->
<!-- a&#45;&gt;b -->
<g id="edge5" class="edge">
<title>a&#45;&gt;b</title>
<path fill="none" stroke="black" d="M326.69,-278C307.87,-278 282.24,-278 261.46,-278"/>
<polygon fill="black" stroke="black" points="261.4,-274.5 251.4,-278 261.4,-281.5 261.4,-274.5"/>
<text text-anchor="middle" x="289.39" y="-281.8" font-family="Times,serif" font-size="14.00">g&#39;</text>
</g>
<!-- T b -->
<g id="node8" class="node">
<title>T b</title>
<ellipse fill="none" stroke="black" cx="224.34" cy="-153" rx="27" ry="18"/>
<text text-anchor="middle" x="224.34" y="-149.3" font-family="Times,serif" font-size="14.00">T b</text>
</g>
<!-- a&#45;&gt;T b -->
<g id="edge18" class="edge">
<title>a&#45;&gt;T b</title>
<path fill="none" stroke="blue" d="M334.58,-265.28C314.34,-250.97 283.13,-228.37 272.89,-218 261.03,-205.99 249.78,-190.86 241.21,-178.21"/>
<polygon fill="blue" stroke="blue" points="243.9,-175.94 235.47,-169.53 238.06,-179.8 243.9,-175.94"/>
<text text-anchor="middle" x="289.39" y="-247.8" font-family="Times,serif" font-size="14.00" fill="blue">g</text>
</g>
<!-- T c -->
<g id="node9" class="node">
<title>T c</title>
<ellipse fill="none" stroke="black" cx="45.9" cy="-153" rx="27" ry="18"/>
<text text-anchor="middle" x="45.9" y="-149.3" font-family="Times,serif" font-size="14.00">T c</text>
</g>
<!-- a&#45;&gt;T c -->
<g id="edge19" class="edge">
<title>a&#45;&gt;T c</title>
<path fill="none" stroke="blue" stroke-dasharray="5,2" d="M339.62,-262.39C319.47,-238.25 282.31,-192.71 272.89,-174 259.79,-147.99 276.39,-130.63 254.89,-111 201.79,-62.52 158.82,-65.3 93.79,-96 79.94,-102.54 68.8,-115.4 60.86,-127.25"/>
<polygon fill="blue" stroke="blue" points="57.73,-125.66 55.42,-136 63.67,-129.36 57.73,-125.66"/>
<text text-anchor="middle" x="224.34" y="-114.8" font-family="Times,serif" font-size="14.00" fill="blue">f &lt;=&lt; g</text>
</g>
<!-- c -->
<g id="node6" class="node">
<title>c</title>
<ellipse fill="none" stroke="black" cx="45.9" cy="-278" rx="27" ry="18"/>
<text text-anchor="middle" x="45.9" y="-274.3" font-family="Times,serif" font-size="14.00">c</text>
</g>
<!-- b&#45;&gt;c -->
<!-- b&#45;&gt;c -->
<g id="edge6" class="edge">
<title>b&#45;&gt;c</title>
<path fill="none" stroke="black" d="M197.31,-278C167.2,-278 117.45,-278 83.47,-278"/>
<polygon fill="black" stroke="black" points="83.04,-274.5 73.04,-278 83.04,-281.5 83.04,-274.5"/>
<text text-anchor="middle" x="134.79" y="-281.8" font-family="Times,serif" font-size="14.00">f&#39;</text>
</g>
<!-- b&#45;&gt;T c -->
<g id="edge20" class="edge">
<title>b&#45;&gt;T c</title>
<path fill="none" stroke="blue" d="M206.07,-264.55C197.19,-257.83 186.1,-249.72 175.79,-243 140.6,-220.07 127.71,-220.79 93.79,-196 85.28,-189.78 76.6,-182.21 69.05,-175.18"/>
<polygon fill="blue" stroke="blue" points="71.02,-172.22 61.37,-167.84 66.18,-177.28 71.02,-172.22"/>
<text text-anchor="middle" x="134.79" y="-246.8" font-family="Times,serif" font-size="14.00" fill="blue">f</text>
</g>
<!-- c&#45;&gt;T c -->
<g id="edge23" class="edge">
<title>c&#45;&gt;T c</title>
<path fill="none" stroke="black" stroke-dasharray="5,2" d="M45.9,-259.8C45.9,-239.24 45.9,-205.51 45.9,-181.46"/>
<polygon fill="black" stroke="black" points="49.4,-181.18 45.9,-171.18 42.4,-181.18 49.4,-181.18"/>
<text text-anchor="middle" x="56.4" y="-211.8" font-family="Times,serif" font-size="14.00">η</text>
</g>
<!-- T a&#45;&gt;T b -->
<!-- T a&#45;&gt;T b -->
<g id="edge9" class="edge">
<title>T a&#45;&gt;T b</title>
<path fill="none" stroke="black" d="M326.5,-154.32C319.78,-154.6 312.57,-154.86 305.89,-155 291.23,-155.31 287.55,-155.31 272.89,-155 269.2,-154.92 265.36,-154.81 261.52,-154.68"/>
<polygon fill="black" stroke="black" points="261.62,-151.18 251.49,-154.3 261.35,-158.18 261.62,-151.18"/>
<text text-anchor="middle" x="289.39" y="-158.8" font-family="Times,serif" font-size="14.00">T g&#39;</text>
</g>
<!-- T b&#45;&gt;T c -->
<!-- T b&#45;&gt;T c -->
<g id="edge10" class="edge">
<title>T b&#45;&gt;T c</title>
<path fill="none" stroke="black" d="M197.31,-153C167.2,-153 117.45,-153 83.47,-153"/>
<polygon fill="black" stroke="black" points="83.04,-149.5 73.04,-153 83.04,-156.5 83.04,-149.5"/>
<text text-anchor="middle" x="134.79" y="-156.8" font-family="Times,serif" font-size="14.00">T f&#39;</text>
</g>
<!-- T b&#45;&gt;T c -->
<g id="edge24" class="edge">
<title>T b&#45;&gt;T c</title>
<path fill="none" stroke="blue" stroke-dasharray="5,2" d="M202.09,-163.49C194.06,-166.92 184.7,-170.29 175.79,-172 140.01,-178.89 129.57,-178.97 93.79,-172 88.3,-170.93 82.63,-169.21 77.22,-167.24"/>
<polygon fill="blue" stroke="blue" points="78.43,-163.95 67.84,-163.49 75.83,-170.45 78.43,-163.95"/>
<text text-anchor="middle" x="134.79" y="-180.8" font-family="Times,serif" font-size="14.00" fill="blue">μ . T f (&gt;&gt;= f)</text>
</g>
<!-- T T c -->
<g id="node12" class="node">
<title>T T c</title>
<ellipse fill="none" stroke="black" cx="45.9" cy="-34" rx="29.8" ry="18"/>
<text text-anchor="middle" x="45.9" y="-30.3" font-family="Times,serif" font-size="14.00">T T c</text>
</g>
<!-- T b&#45;&gt;T T c -->
<g id="edge21" class="edge">
<title>T b&#45;&gt;T T c</title>
<path fill="none" stroke="purple" d="M205.9,-139.79C196.98,-133.13 185.9,-125.01 175.79,-118 142.02,-94.59 102.28,-68.98 75.95,-52.27"/>
<polygon fill="purple" stroke="purple" points="77.55,-49.14 67.23,-46.74 73.8,-55.05 77.55,-49.14"/>
<text text-anchor="middle" x="134.79" y="-121.8" font-family="Times,serif" font-size="14.00" fill="purple">T f</text>
</g>
<!-- T T b -->
<g id="node11" class="node">
<title>T T b</title>
<ellipse fill="none" stroke="black" cx="224.34" cy="-34" rx="30.59" ry="18"/>
<text text-anchor="middle" x="224.34" y="-30.3" font-family="Times,serif" font-size="14.00">T T b</text>
</g>
<!-- T T a&#45;&gt;T T b -->
<!-- T T a&#45;&gt;T T b -->
<g id="edge13" class="edge">
<title>T T a&#45;&gt;T T b</title>
<path fill="none" stroke="black" d="M323.87,-35.55C306.52,-35.27 284.2,-34.92 265.2,-34.63"/>
<polygon fill="black" stroke="black" points="265.08,-31.12 255.03,-34.47 264.97,-38.12 265.08,-31.12"/>
<text text-anchor="middle" x="289.39" y="-39.8" font-family="Times,serif" font-size="14.00">T T g&#39;</text>
</g>
<!-- T T b&#45;&gt;T T c -->
<!-- T T b&#45;&gt;T T c -->
<g id="edge14" class="edge">
<title>T T b&#45;&gt;T T c</title>
<path fill="none" stroke="black" d="M193.41,-34C163.78,-34 118.27,-34 85.83,-34"/>
<polygon fill="black" stroke="black" points="85.8,-30.5 75.8,-34 85.8,-37.5 85.8,-30.5"/>
<text text-anchor="middle" x="134.79" y="-37.8" font-family="Times,serif" font-size="14.00">T T f&#39;</text>
</g>
<!-- T T c&#45;&gt;T c -->
<g id="edge22" class="edge">
<title>T T c&#45;&gt;T c</title>
<path fill="none" stroke="purple" stroke-dasharray="5,2" d="M45.9,-52.07C45.9,-71.29 45.9,-101.97 45.9,-124.46"/>
<polygon fill="purple" stroke="purple" points="42.4,-124.76 45.9,-134.76 49.4,-124.76 42.4,-124.76"/>
<text text-anchor="middle" x="56.4" y="-89.8" font-family="Times,serif" font-size="14.00">μ</text>
</g>
</g>
</svg>
