<?xml version="1.0" encoding="UTF-8" standalone="no"?>
<!DOCTYPE svg PUBLIC "-//W3C//DTD SVG 1.1//EN"
 "http://www.w3.org/Graphics/SVG/1.1/DTD/svg11.dtd">
<!-- Generated by graphviz version 2.40.1 (20161225.0304)
 -->
<!-- Title: %3 Pages: 1 -->
<svg width="857pt" height="281pt"
 viewBox="0.00 0.00 856.71 280.60" xmlns="http://www.w3.org/2000/svg" xmlns:xlink="http://www.w3.org/1999/xlink">
<g id="graph0" class="graph" transform="scale(1 1) rotate(0) translate(4 276.5999)">
<title>%3</title>
<polygon fill="#ffffff" stroke="transparent" points="-4,4 -4,-276.5999 852.7061,-276.5999 852.7061,4 -4,4"/>
<text text-anchor="middle" x="424.353" y="-12.3999" font-family="Times,serif" font-size="14.00" fill="#000000">Functor F 到 G 的自然变换</text>
<g id="clust1" class="cluster">
<title>cluster_C</title>
<polygon fill="none" stroke="#000000" stroke-dasharray="1,5" points="503.0439,-35.5999 503.0439,-159.5999 840.7061,-159.5999 840.7061,-35.5999 503.0439,-35.5999"/>
<text text-anchor="middle" x="671.875" y="-144.3999" font-family="Times,serif" font-size="14.00" fill="#000000">C</text>
</g>
<g id="clust2" class="cluster">
<title>cluster_D</title>
<polygon fill="none" stroke="#000000" stroke-dasharray="1,5" points="8,-36.5999 8,-264.5999 418.9336,-264.5999 418.9336,-36.5999 8,-36.5999"/>
<text text-anchor="middle" x="213.4668" y="-249.3999" font-family="Times,serif" font-size="14.00" fill="#000000">D</text>
</g>
<!-- a -->
<g id="node1" class="node">
<title>a</title>
<ellipse fill="none" stroke="#000000" cx="805.7061" cy="-70.5999" rx="27" ry="18"/>
<text text-anchor="middle" x="805.7061" y="-66.3999" font-family="Times,serif" font-size="14.00" fill="#000000">a</text>
</g>
<!-- a&#45;&gt;a -->
<g id="edge1" class="edge">
<title>a&#45;&gt;a</title>
<path fill="none" stroke="#000000" d="M813.5613,-88.0098C815.0276,-97.6878 812.4092,-106.5999 805.7061,-106.5999 801.5166,-106.5999 798.9227,-103.1186 797.9245,-98.1449"/>
<polygon fill="#000000" stroke="#000000" points="801.4235,-97.9841 797.8508,-88.0098 794.4237,-98.035 801.4235,-97.9841"/>
<text text-anchor="middle" x="805.7061" y="-109.3999" font-family="Times,serif" font-size="14.00" fill="#000000">id</text>
</g>
<!-- b -->
<g id="node2" class="node">
<title>b</title>
<ellipse fill="none" stroke="#000000" cx="670.7061" cy="-61.5999" rx="27" ry="18"/>
<text text-anchor="middle" x="670.7061" y="-57.3999" font-family="Times,serif" font-size="14.00" fill="#000000">b</text>
</g>
<!-- a&#45;&gt;b -->
<g id="edge2" class="edge">
<title>a&#45;&gt;b</title>
<path fill="none" stroke="#000000" d="M778.7113,-68.8003C758.3848,-67.4452 730.2821,-65.5717 707.8383,-64.0754"/>
<polygon fill="#000000" stroke="#000000" points="707.8648,-60.5695 697.6541,-63.3964 707.3991,-67.554 707.8648,-60.5695"/>
<text text-anchor="middle" x="738.2061" y="-69.3999" font-family="Times,serif" font-size="14.00" fill="#000000">g</text>
</g>
<!-- c -->
<g id="node3" class="node">
<title>c</title>
<ellipse fill="none" stroke="#000000" cx="538.0439" cy="-104.5999" rx="27" ry="18"/>
<text text-anchor="middle" x="538.0439" y="-100.3999" font-family="Times,serif" font-size="14.00" fill="#000000">c</text>
</g>
<!-- a&#45;&gt;c -->
<g id="edge4" class="edge">
<title>a&#45;&gt;c</title>
<path fill="none" stroke="#000000" d="M792.4277,-86.3387C779.9167,-99.3154 759.8957,-115.5999 738.2061,-115.5999 738.2061,-115.5999 738.2061,-115.5999 604.375,-115.5999 594.2386,-115.5999 583.3468,-114.3343 573.3784,-112.6616"/>
<polygon fill="#000000" stroke="#000000" points="573.8659,-109.1924 563.3949,-110.8072 572.5875,-116.0746 573.8659,-109.1924"/>
<text text-anchor="middle" x="670.7061" y="-118.3999" font-family="Times,serif" font-size="14.00" fill="#000000">f . g</text>
</g>
<!-- b&#45;&gt;c -->
<g id="edge3" class="edge">
<title>b&#45;&gt;c</title>
<path fill="none" stroke="#000000" d="M646.3738,-69.4868C625.6531,-76.203 595.6438,-85.93 572.462,-93.4439"/>
<polygon fill="#000000" stroke="#000000" points="571.1048,-90.2045 562.6712,-96.6174 573.2632,-96.8634 571.1048,-90.2045"/>
<text text-anchor="middle" x="604.375" y="-87.3999" font-family="Times,serif" font-size="14.00" fill="#000000">f</text>
</g>
<!-- functorG -->
<g id="node10" class="node">
<title>functorG</title>
<text text-anchor="middle" x="460.9888" y="-97.3999" font-family="Times,serif" font-size="14.00" fill="#000000">G</text>
</g>
<!-- c&#45;&gt;functorG -->
<g id="edge14" class="edge">
<title>c&#45;&gt;functorG</title>
<path fill="none" stroke="#000000" d="M510.6602,-103.5338C498.3751,-103.0555 484.4359,-102.5128 474.4576,-102.1243"/>
</g>
<!-- functorF -->
<g id="node11" class="node">
<title>functorF</title>
<text text-anchor="middle" x="460.9888" y="-155.3999" font-family="Times,serif" font-size="14.00" fill="#000000">F</text>
</g>
<!-- c&#45;&gt;functorF -->
<g id="edge15" class="edge">
<title>c&#45;&gt;functorF</title>
<path fill="none" stroke="#000000" d="M519.391,-117.9139C504.9599,-128.2144 485.4059,-142.1716 472.9916,-151.0326"/>
</g>
<!-- G a -->
<g id="node4" class="node">
<title>G a</title>
<ellipse fill="none" stroke="#000000" cx="383.9336" cy="-91.5999" rx="27" ry="18"/>
<text text-anchor="middle" x="383.9336" y="-87.3999" font-family="Times,serif" font-size="14.00" fill="#000000">G a</text>
</g>
<!-- G a&#45;&gt;G a -->
<g id="edge5" class="edge">
<title>G a&#45;&gt;G a</title>
<path fill="none" stroke="#000000" d="M391.7888,-109.0098C393.2551,-118.6878 390.6367,-127.5999 383.9336,-127.5999 379.7441,-127.5999 377.1503,-124.1186 376.152,-119.1449"/>
<polygon fill="#000000" stroke="#000000" points="379.651,-118.9841 376.0784,-109.0098 372.6512,-119.035 379.651,-118.9841"/>
<text text-anchor="middle" x="383.9336" y="-130.3999" font-family="Times,serif" font-size="14.00" fill="#000000">G id</text>
</g>
<!-- G b -->
<g id="node5" class="node">
<title>G b</title>
<ellipse fill="none" stroke="#000000" cx="212.2979" cy="-62.5999" rx="27" ry="18"/>
<text text-anchor="middle" x="212.2979" y="-58.3999" font-family="Times,serif" font-size="14.00" fill="#000000">G b</text>
</g>
<!-- G a&#45;&gt;G b -->
<g id="edge6" class="edge">
<title>G a&#45;&gt;G b</title>
<path fill="none" stroke="#000000" d="M357.4917,-87.1322C328.303,-82.2004 281.1398,-74.2316 248.525,-68.7209"/>
<polygon fill="#000000" stroke="#000000" points="248.9316,-65.2401 238.4882,-67.0251 247.7653,-72.1423 248.9316,-65.2401"/>
<text text-anchor="middle" x="309.6284" y="-84.3999" font-family="Times,serif" font-size="14.00" fill="#000000">G g</text>
</g>
<!-- G c -->
<g id="node6" class="node">
<title>G c</title>
<ellipse fill="none" stroke="#000000" cx="43" cy="-89.5999" rx="27" ry="18"/>
<text text-anchor="middle" x="43" y="-85.3999" font-family="Times,serif" font-size="14.00" fill="#000000">G c</text>
</g>
<!-- G a&#45;&gt;G c -->
<g id="edge8" class="edge">
<title>G a&#45;&gt;G c</title>
<path fill="none" stroke="#000000" d="M362.4614,-102.9296C347.9531,-109.5443 328.1391,-116.5999 309.6284,-116.5999 309.6284,-116.5999 309.6284,-116.5999 116.1362,-116.5999 101.2521,-116.5999 85.6598,-111.6177 72.7143,-105.9336"/>
<polygon fill="#000000" stroke="#000000" points="73.9225,-102.6334 63.3862,-101.5211 70.9292,-108.9611 73.9225,-102.6334"/>
<text text-anchor="middle" x="212.2979" y="-119.3999" font-family="Times,serif" font-size="14.00" fill="#000000">G f . g = G f . G g</text>
</g>
<!-- G b&#45;&gt;G c -->
<g id="edge7" class="edge">
<title>G b&#45;&gt;G c</title>
<path fill="none" stroke="#000000" d="M185.8451,-66.8187C157.2699,-71.3759 111.5461,-78.668 79.5478,-83.7712"/>
<polygon fill="#000000" stroke="#000000" points="78.591,-80.3795 69.267,-85.4108 79.6935,-87.2921 78.591,-80.3795"/>
<text text-anchor="middle" x="116.1362" y="-82.3999" font-family="Times,serif" font-size="14.00" fill="#000000">G f</text>
</g>
<!-- F a -->
<g id="node7" class="node">
<title>F a</title>
<ellipse fill="none" stroke="#000000" cx="383.9336" cy="-177.5999" rx="27" ry="18"/>
<text text-anchor="middle" x="383.9336" y="-173.3999" font-family="Times,serif" font-size="14.00" fill="#000000">F a</text>
</g>
<!-- F a&#45;&gt;F a -->
<g id="edge9" class="edge">
<title>F a&#45;&gt;F a</title>
<path fill="none" stroke="#000000" d="M391.7888,-195.0098C393.2551,-204.6878 390.6367,-213.5999 383.9336,-213.5999 379.7441,-213.5999 377.1503,-210.1186 376.152,-205.1449"/>
<polygon fill="#000000" stroke="#000000" points="379.651,-204.9841 376.0784,-195.0098 372.6512,-205.035 379.651,-204.9841"/>
<text text-anchor="middle" x="383.9336" y="-216.3999" font-family="Times,serif" font-size="14.00" fill="#000000">F id</text>
</g>
<!-- F b -->
<g id="node8" class="node">
<title>F b</title>
<ellipse fill="none" stroke="#000000" cx="212.2979" cy="-166.5999" rx="27" ry="18"/>
<text text-anchor="middle" x="212.2979" y="-162.3999" font-family="Times,serif" font-size="14.00" fill="#000000">F b</text>
</g>
<!-- F a&#45;&gt;F b -->
<g id="edge10" class="edge">
<title>F a&#45;&gt;F b</title>
<path fill="none" stroke="#000000" d="M356.7374,-175.8569C327.8631,-174.0064 282.0289,-171.0689 249.7499,-169.0002"/>
<polygon fill="#000000" stroke="#000000" points="249.5702,-165.4816 239.3668,-168.3347 249.1224,-172.4672 249.5702,-165.4816"/>
<text text-anchor="middle" x="309.6284" y="-175.3999" font-family="Times,serif" font-size="14.00" fill="#000000">F g</text>
</g>
<!-- F c -->
<g id="node9" class="node">
<title>F c</title>
<ellipse fill="none" stroke="#000000" cx="43" cy="-191.5999" rx="27" ry="18"/>
<text text-anchor="middle" x="43" y="-187.3999" font-family="Times,serif" font-size="14.00" fill="#000000">F c</text>
</g>
<!-- F a&#45;&gt;F c -->
<g id="edge12" class="edge">
<title>F a&#45;&gt;F c</title>
<path fill="none" stroke="#000000" d="M368.8768,-192.6392C354.8085,-205.0392 332.5814,-220.5999 309.6284,-220.5999 309.6284,-220.5999 309.6284,-220.5999 116.1362,-220.5999 100.7485,-220.5999 84.7407,-214.9839 71.6384,-208.6947"/>
<polygon fill="#000000" stroke="#000000" points="73.154,-205.5383 62.6619,-204.0668 69.9464,-211.7601 73.154,-205.5383"/>
<text text-anchor="middle" x="212.2979" y="-223.3999" font-family="Times,serif" font-size="14.00" fill="#000000">F f . g = F f . F g</text>
</g>
<!-- F b&#45;&gt;F c -->
<g id="edge11" class="edge">
<title>F b&#45;&gt;F c</title>
<path fill="none" stroke="#000000" d="M185.8451,-170.5062C157.3535,-174.7135 111.8133,-181.4383 79.8289,-186.1614"/>
<polygon fill="#000000" stroke="#000000" points="78.9272,-182.7565 69.5458,-187.6799 79.9499,-189.6814 78.9272,-182.7565"/>
<text text-anchor="middle" x="116.1362" y="-184.3999" font-family="Times,serif" font-size="14.00" fill="#000000">F f</text>
</g>
<!-- functorG&#45;&gt;G a -->
<g id="edge16" class="edge">
<title>functorG&#45;&gt;G a</title>
<path fill="none" stroke="#000000" d="M447.9174,-99.9036C440.3328,-98.9192 430.3659,-97.6258 420.5632,-96.3536"/>
<polygon fill="#000000" stroke="#000000" points="429.4062,-94.4441 418.9336,-96.0494 428.1215,-101.3253 429.4062,-94.4441"/>
</g>
<!-- functorF&#45;&gt;F a -->
<g id="edge17" class="edge">
<title>functorF&#45;&gt;F a</title>
<path fill="none" stroke="#000000" d="M448.9489,-162.4124C440.9939,-164.2707 430.119,-166.8111 419.5395,-169.2824"/>
<polygon fill="#000000" stroke="#000000" points="418.5335,-165.9231 409.5919,-171.6062 420.1259,-172.7396 418.5335,-165.9231"/>
</g>
<!-- functorF&#45;&gt;functorG -->
<g id="edge13" class="edge">
<title>functorF&#45;&gt;functorG</title>
<path fill="none" stroke="#000000" d="M460.9888,-148.4513C460.9888,-141.2375 460.9888,-131.6117 460.9888,-122.9621"/>
<polygon fill="#000000" stroke="#000000" points="464.4889,-122.7829 460.9888,-112.7829 457.4889,-122.7829 464.4889,-122.7829"/>
<text text-anchor="middle" x="470.9888" y="-126.3999" font-family="Times,serif" font-size="14.00" fill="#000000">η</text>
</g>
</g>
</svg>
