<?xml version="1.0" encoding="UTF-8" standalone="no"?>
<!DOCTYPE svg PUBLIC "-//W3C//DTD SVG 1.1//EN"
 "http://www.w3.org/Graphics/SVG/1.1/DTD/svg11.dtd">
<!-- Generated by graphviz version 2.43.0 (0)
 -->
<!-- Title: %3 Pages: 1 -->
<svg width="708pt" height="278pt"
 viewBox="0.00 0.00 708.00 278.00" xmlns="http://www.w3.org/2000/svg" xmlns:xlink="http://www.w3.org/1999/xlink">
<g id="graph0" class="graph" transform="scale(1 1) rotate(0) translate(4 274)">
<title>%3</title>
<polygon fill="white" stroke="transparent" points="-4,4 -4,-274 704,-274 704,4 -4,4"/>
<text text-anchor="middle" x="350" y="-7.8" font-family="Times,serif" font-size="14.00">Functor F 到 G 的自然变换</text>
<g id="clust1" class="cluster">
<title>cluster_C</title>
<polygon fill="none" stroke="black" stroke-dasharray="1,5" points="430,-92 430,-218 692,-218 692,-92 430,-92"/>
<text text-anchor="middle" x="561" y="-202.8" font-family="Times,serif" font-size="14.00">C</text>
</g>
<g id="clust2" class="cluster">
<title>cluster_D</title>
<polygon fill="none" stroke="black" stroke-dasharray="1,5" points="8,-31 8,-262 346,-262 346,-31 8,-31"/>
<text text-anchor="middle" x="177" y="-246.8" font-family="Times,serif" font-size="14.00">D</text>
</g>
<!-- a -->
<g id="node1" class="node">
<title>a</title>
<ellipse fill="none" stroke="black" cx="657" cy="-131" rx="27" ry="18"/>
<text text-anchor="middle" x="657" y="-127.3" font-family="Times,serif" font-size="14.00">a</text>
</g>
<!-- a&#45;&gt;a -->
<g id="edge1" class="edge">
<title>a&#45;&gt;a</title>
<path fill="none" stroke="black" d="M665.57,-148.41C667.17,-158.09 664.31,-167 657,-167 652.43,-167 649.6,-163.52 648.51,-158.54"/>
<polygon fill="black" stroke="black" points="652.01,-158.38 648.43,-148.41 645.01,-158.44 652.01,-158.38"/>
<text text-anchor="middle" x="657" y="-170.8" font-family="Times,serif" font-size="14.00">id</text>
</g>
<!-- b -->
<g id="node2" class="node">
<title>b</title>
<ellipse fill="none" stroke="black" cx="560" cy="-118" rx="27" ry="18"/>
<text text-anchor="middle" x="560" y="-114.3" font-family="Times,serif" font-size="14.00">b</text>
</g>
<!-- a&#45;&gt;b -->
<g id="edge2" class="edge">
<title>a&#45;&gt;b</title>
<path fill="none" stroke="black" d="M630.04,-127.45C619.8,-126.05 607.86,-124.41 596.82,-122.9"/>
<polygon fill="black" stroke="black" points="596.98,-119.39 586.6,-121.5 596.03,-126.33 596.98,-119.39"/>
<text text-anchor="middle" x="608.5" y="-127.8" font-family="Times,serif" font-size="14.00">g</text>
</g>
<!-- c -->
<g id="node3" class="node">
<title>c</title>
<ellipse fill="none" stroke="black" cx="465" cy="-134" rx="27" ry="18"/>
<text text-anchor="middle" x="465" y="-130.3" font-family="Times,serif" font-size="14.00">c</text>
</g>
<!-- a&#45;&gt;c -->
<g id="edge4" class="edge">
<title>a&#45;&gt;c</title>
<path fill="none" stroke="black" d="M631.98,-138.42C625.54,-140.17 618.55,-141.85 612,-143 567.34,-150.81 555,-150.54 510,-145 506.72,-144.6 503.33,-144.03 499.95,-143.36"/>
<polygon fill="black" stroke="black" points="500.53,-139.9 490.01,-141.13 499,-146.73 500.53,-139.9"/>
<text text-anchor="middle" x="560" y="-152.8" font-family="Times,serif" font-size="14.00">f . g</text>
</g>
<!-- b&#45;&gt;c -->
<g id="edge3" class="edge">
<title>b&#45;&gt;c</title>
<path fill="none" stroke="black" d="M533.59,-122.37C523.64,-124.08 512.07,-126.07 501.33,-127.92"/>
<polygon fill="black" stroke="black" points="500.64,-124.49 491.38,-129.63 501.83,-131.39 500.64,-124.49"/>
<text text-anchor="middle" x="512.5" y="-129.8" font-family="Times,serif" font-size="14.00">f</text>
</g>
<!-- functorG -->
<g id="node10" class="node">
<title>functorG</title>
<text text-anchor="middle" x="388" y="-101.3" font-family="Times,serif" font-size="14.00">G</text>
</g>
<!-- c&#45;&gt;functorG -->
<g id="edge14" class="edge">
<title>c&#45;&gt;functorG</title>
<path fill="none" stroke="black" d="M441.09,-125.14C427.99,-120.08 412.09,-113.93 401.32,-109.76"/>
</g>
<!-- functorF -->
<g id="node11" class="node">
<title>functorF</title>
<text text-anchor="middle" x="388" y="-160.3" font-family="Times,serif" font-size="14.00">F</text>
</g>
<!-- c&#45;&gt;functorF -->
<g id="edge15" class="edge">
<title>c&#45;&gt;functorF</title>
<path fill="none" stroke="black" d="M441.5,-143C427.86,-148.45 411.06,-155.18 400.2,-159.52"/>
</g>
<!-- G a -->
<g id="node4" class="node">
<title>G a</title>
<ellipse fill="none" stroke="black" cx="311" cy="-84" rx="27" ry="18"/>
<text text-anchor="middle" x="311" y="-80.3" font-family="Times,serif" font-size="14.00">G a</text>
</g>
<!-- G a&#45;&gt;G a -->
<g id="edge5" class="edge">
<title>G a&#45;&gt;G a</title>
<path fill="none" stroke="black" d="M318.86,-101.41C320.32,-111.09 317.7,-120 311,-120 306.81,-120 304.22,-116.52 303.22,-111.54"/>
<polygon fill="black" stroke="black" points="306.72,-111.38 303.14,-101.41 299.72,-111.44 306.72,-111.38"/>
<text text-anchor="middle" x="311" y="-123.8" font-family="Times,serif" font-size="14.00">G id</text>
</g>
<!-- G b -->
<g id="node5" class="node">
<title>G b</title>
<ellipse fill="none" stroke="black" cx="176" cy="-57" rx="27" ry="18"/>
<text text-anchor="middle" x="176" y="-53.3" font-family="Times,serif" font-size="14.00">G b</text>
</g>
<!-- G a&#45;&gt;G b -->
<g id="edge6" class="edge">
<title>G a&#45;&gt;G b</title>
<path fill="none" stroke="black" d="M284.98,-78.92C264.49,-74.76 235.26,-68.83 212.37,-64.18"/>
<polygon fill="black" stroke="black" points="212.85,-60.71 202.36,-62.15 211.46,-67.57 212.85,-60.71"/>
<text text-anchor="middle" x="255.5" y="-78.8" font-family="Times,serif" font-size="14.00">G g</text>
</g>
<!-- G c -->
<g id="node6" class="node">
<title>G c</title>
<ellipse fill="none" stroke="black" cx="43" cy="-101" rx="27" ry="18"/>
<text text-anchor="middle" x="43" y="-97.3" font-family="Times,serif" font-size="14.00">G c</text>
</g>
<!-- G a&#45;&gt;G c -->
<g id="edge8" class="edge">
<title>G a&#45;&gt;G c</title>
<path fill="none" stroke="black" d="M285.46,-90.31C279.16,-91.73 272.36,-93.08 266,-94 195.92,-104.1 177.77,-101.78 107,-104 98.56,-104.27 96.44,-104.29 88,-104 85.46,-103.91 82.83,-103.8 80.19,-103.66"/>
<polygon fill="black" stroke="black" points="80.23,-100.16 70.04,-103.07 79.82,-107.15 80.23,-100.16"/>
<text text-anchor="middle" x="176" y="-106.8" font-family="Times,serif" font-size="14.00">G f . g = G f . G g</text>
</g>
<!-- G b&#45;&gt;G c -->
<g id="edge7" class="edge">
<title>G b&#45;&gt;G c</title>
<path fill="none" stroke="black" d="M151.58,-64.87C130.94,-71.8 100.62,-81.98 77.43,-89.77"/>
<polygon fill="black" stroke="black" points="76.02,-86.55 67.66,-93.05 78.25,-93.19 76.02,-86.55"/>
<text text-anchor="middle" x="97.5" y="-88.8" font-family="Times,serif" font-size="14.00">G f</text>
</g>
<!-- F a -->
<g id="node7" class="node">
<title>F a</title>
<ellipse fill="none" stroke="black" cx="311" cy="-171" rx="27" ry="18"/>
<text text-anchor="middle" x="311" y="-167.3" font-family="Times,serif" font-size="14.00">F a</text>
</g>
<!-- F a&#45;&gt;F a -->
<g id="edge9" class="edge">
<title>F a&#45;&gt;F a</title>
<path fill="none" stroke="black" d="M318.86,-188.41C320.32,-198.09 317.7,-207 311,-207 306.81,-207 304.22,-203.52 303.22,-198.54"/>
<polygon fill="black" stroke="black" points="306.72,-198.38 303.14,-188.41 299.72,-198.44 306.72,-198.38"/>
<text text-anchor="middle" x="311" y="-210.8" font-family="Times,serif" font-size="14.00">F id</text>
</g>
<!-- F b -->
<g id="node8" class="node">
<title>F b</title>
<ellipse fill="none" stroke="black" cx="176" cy="-162" rx="27" ry="18"/>
<text text-anchor="middle" x="176" y="-158.3" font-family="Times,serif" font-size="14.00">F b</text>
</g>
<!-- F a&#45;&gt;F b -->
<g id="edge10" class="edge">
<title>F a&#45;&gt;F b</title>
<path fill="none" stroke="black" d="M284.04,-169.24C263.81,-167.87 235.48,-165.96 213.05,-164.44"/>
<polygon fill="black" stroke="black" points="213.11,-160.94 202.89,-163.75 212.63,-167.92 213.11,-160.94"/>
<text text-anchor="middle" x="255.5" y="-170.8" font-family="Times,serif" font-size="14.00">F g</text>
</g>
<!-- F c -->
<g id="node9" class="node">
<title>F c</title>
<ellipse fill="none" stroke="black" cx="43" cy="-172" rx="27" ry="18"/>
<text text-anchor="middle" x="43" y="-168.3" font-family="Times,serif" font-size="14.00">F c</text>
</g>
<!-- F a&#45;&gt;F c -->
<g id="edge12" class="edge">
<title>F a&#45;&gt;F c</title>
<path fill="none" stroke="black" d="M287.47,-179.9C280.67,-182.25 273.11,-184.54 266,-186 188.51,-201.92 165.67,-202.04 88,-187 84.1,-186.24 80.07,-185.23 76.11,-184.07"/>
<polygon fill="black" stroke="black" points="77.1,-180.71 66.51,-181 74.97,-187.38 77.1,-180.71"/>
<text text-anchor="middle" x="176" y="-201.8" font-family="Times,serif" font-size="14.00">F f . g = F f . F g</text>
</g>
<!-- F b&#45;&gt;F c -->
<g id="edge11" class="edge">
<title>F b&#45;&gt;F c</title>
<path fill="none" stroke="black" d="M149.12,-163.98C129.51,-165.47 102.31,-167.55 80.5,-169.21"/>
<polygon fill="black" stroke="black" points="79.98,-165.74 70.28,-169.99 80.51,-172.72 79.98,-165.74"/>
<text text-anchor="middle" x="97.5" y="-171.8" font-family="Times,serif" font-size="14.00">F f</text>
</g>
<!-- functorG&#45;&gt;G a -->
<g id="edge16" class="edge">
<title>functorG&#45;&gt;G a</title>
<path fill="none" stroke="black" d="M374.95,-101.63C369.53,-100.11 362.78,-98.22 355.72,-96.24"/>
<polygon fill="black" stroke="black" points="356.57,-92.85 346,-93.52 354.68,-99.59 356.57,-92.85"/>
</g>
<!-- functorF&#45;&gt;F a -->
<g id="edge17" class="edge">
<title>functorF&#45;&gt;F a</title>
<path fill="none" stroke="black" d="M375.93,-165.03C368.48,-165.73 358.18,-166.69 348.03,-167.64"/>
<polygon fill="black" stroke="black" points="347.67,-164.16 338.04,-168.57 348.32,-171.13 347.67,-164.16"/>
</g>
<!-- functorF&#45;&gt;functorG -->
<g id="edge13" class="edge">
<title>functorF&#45;&gt;functorG</title>
<path fill="none" stroke="black" d="M388,-152.37C388,-145.1 388,-135.51 388,-126.86"/>
<polygon fill="black" stroke="black" points="391.5,-126.66 388,-116.66 384.5,-126.66 391.5,-126.66"/>
<text text-anchor="middle" x="398.5" y="-130.8" font-family="Times,serif" font-size="14.00">η</text>
</g>
</g>
</svg>
