<?xml version="1.0" encoding="UTF-8" standalone="no"?>
<!DOCTYPE svg PUBLIC "-//W3C//DTD SVG 1.1//EN"
 "http://www.w3.org/Graphics/SVG/1.1/DTD/svg11.dtd">
<!-- Generated by graphviz version 2.43.0 (0)
 -->
<!-- Title: %3 Pages: 1 -->
<svg width="234pt" height="218pt"
 viewBox="0.00 0.00 234.00 218.00" xmlns="http://www.w3.org/2000/svg" xmlns:xlink="http://www.w3.org/1999/xlink">
<g id="graph0" class="graph" transform="scale(1 1) rotate(0) translate(4 214)">
<title>%3</title>
<polygon fill="white" stroke="transparent" points="-4,4 -4,-214 230,-214 230,4 -4,4"/>
<g id="clust1" class="cluster">
<title>cluster_C</title>
<polygon fill="none" stroke="black" stroke-dasharray="1,5" points="8,-8 8,-101 169,-101 169,-8 8,-8"/>
<text text-anchor="middle" x="88.5" y="-85.8" font-family="Times,serif" font-size="14.00">C</text>
</g>
<g id="clust2" class="cluster">
<title>cluster_D</title>
<polygon fill="none" stroke="black" stroke-dasharray="1,5" points="8,-109 8,-202 169,-202 169,-109 8,-109"/>
<text text-anchor="middle" x="88.5" y="-186.8" font-family="Times,serif" font-size="14.00">D</text>
</g>
<!-- 0 -->
<!-- 1 -->
<!-- 0&#45;&gt;1 -->
<g id="edge3" class="edge">
<title>0&#45;&gt;1</title>
<path fill="none" stroke="black" d="M169,-98.04C172.64,-102.48 175.81,-107.33 178,-112.5 181.91,-121.72 176.57,-140.82 172.6,-152.42"/>
<polygon fill="black" stroke="black" points="169.24,-151.41 169,-162 175.8,-153.87 169.24,-151.41"/>
<text text-anchor="middle" x="183" y="-116.3" font-family="Times,serif" font-size="14.00">F</text>
</g>
<!-- a -->
<g id="node2" class="node">
<title>a</title>
<ellipse fill="none" stroke="black" cx="134" cy="-34" rx="27" ry="18"/>
<text text-anchor="middle" x="134" y="-30.3" font-family="Times,serif" font-size="14.00">a</text>
</g>
<!-- b -->
<g id="node3" class="node">
<title>b</title>
<ellipse fill="none" stroke="black" cx="43" cy="-34" rx="27" ry="18"/>
<text text-anchor="middle" x="43" y="-30.3" font-family="Times,serif" font-size="14.00">b</text>
</g>
<!-- a&#45;&gt;b -->
<g id="edge1" class="edge">
<title>a&#45;&gt;b</title>
<path fill="none" stroke="black" d="M106.78,-34C98.45,-34 89.09,-34 80.18,-34"/>
<polygon fill="black" stroke="black" points="80.03,-30.5 70.03,-34 80.03,-37.5 80.03,-30.5"/>
</g>
<!-- F a -->
<g id="node5" class="node">
<title>F a</title>
<ellipse fill="none" stroke="black" cx="134" cy="-135" rx="27" ry="18"/>
<text text-anchor="middle" x="134" y="-131.3" font-family="Times,serif" font-size="14.00">F a</text>
</g>
<!-- F b -->
<g id="node6" class="node">
<title>F b</title>
<ellipse fill="none" stroke="black" cx="43" cy="-135" rx="27" ry="18"/>
<text text-anchor="middle" x="43" y="-131.3" font-family="Times,serif" font-size="14.00">F b</text>
</g>
<!-- F a&#45;&gt;F b -->
<g id="edge2" class="edge">
<title>F a&#45;&gt;F b</title>
<path fill="none" stroke="black" d="M106.78,-135C98.45,-135 89.09,-135 80.18,-135"/>
<polygon fill="black" stroke="black" points="80.03,-131.5 70.03,-135 80.03,-138.5 80.03,-131.5"/>
</g>
</g>
</svg>
