<?xml version="1.0" encoding="UTF-8" standalone="no"?>
<!DOCTYPE svg PUBLIC "-//W3C//DTD SVG 1.1//EN"
 "http://www.w3.org/Graphics/SVG/1.1/DTD/svg11.dtd">
<!-- Generated by graphviz version 2.40.1 (20161225.0304)
 -->
<!-- Title: %3 Pages: 1 -->
<svg width="234pt" height="216pt"
 viewBox="0.00 0.00 233.89 216.00" xmlns="http://www.w3.org/2000/svg" xmlns:xlink="http://www.w3.org/1999/xlink">
<g id="graph0" class="graph" transform="scale(1 1) rotate(0) translate(4 212)">
<title>%3</title>
<polygon fill="#ffffff" stroke="transparent" points="-4,4 -4,-212 229.8931,-212 229.8931,4 -4,4"/>
<g id="clust1" class="cluster">
<title>cluster_C</title>
<polygon fill="none" stroke="#000000" stroke-dasharray="1,5" points="8,-8 8,-100 169,-100 169,-8 8,-8"/>
<text text-anchor="middle" x="88.5" y="-84.8" font-family="Times,serif" font-size="14.00" fill="#000000">C</text>
</g>
<g id="clust2" class="cluster">
<title>cluster_D</title>
<polygon fill="none" stroke="#000000" stroke-dasharray="1,5" points="8,-108 8,-200 169,-200 169,-108 8,-108"/>
<text text-anchor="middle" x="88.5" y="-184.8" font-family="Times,serif" font-size="14.00" fill="#000000">D</text>
</g>
<!-- 0 -->
<!-- 1 -->
<!-- 0&#45;&gt;1 -->
<g id="edge3" class="edge">
<title>0&#45;&gt;1</title>
<path fill="none" stroke="#000000" d="M168.9975,-98.4701C172.5791,-102.9367 175.6726,-107.8096 177.7861,-113 181.4977,-122.1151 176.5197,-140.386 172.6758,-151.5721"/>
<polygon fill="#000000" stroke="#000000" points="169.3717,-150.4117 169,-161 175.8935,-152.9545 169.3717,-150.4117"/>
<text text-anchor="middle" x="182.8931" y="-115.8" font-family="Times,serif" font-size="14.00" fill="#000000">F</text>
</g>
<!-- a -->
<g id="node2" class="node">
<title>a</title>
<ellipse fill="none" stroke="#000000" cx="134" cy="-34" rx="27" ry="18"/>
<text text-anchor="middle" x="134" y="-29.8" font-family="Times,serif" font-size="14.00" fill="#000000">a</text>
</g>
<!-- b -->
<g id="node3" class="node">
<title>b</title>
<ellipse fill="none" stroke="#000000" cx="43" cy="-34" rx="27" ry="18"/>
<text text-anchor="middle" x="43" y="-29.8" font-family="Times,serif" font-size="14.00" fill="#000000">b</text>
</g>
<!-- a&#45;&gt;b -->
<g id="edge1" class="edge">
<title>a&#45;&gt;b</title>
<path fill="none" stroke="#000000" d="M106.697,-34C98.4187,-34 89.1783,-34 80.3595,-34"/>
<polygon fill="#000000" stroke="#000000" points="80.2838,-30.5001 70.2837,-34 80.2837,-37.5001 80.2838,-30.5001"/>
</g>
<!-- F a -->
<g id="node5" class="node">
<title>F a</title>
<ellipse fill="none" stroke="#000000" cx="134" cy="-134" rx="27" ry="18"/>
<text text-anchor="middle" x="134" y="-129.8" font-family="Times,serif" font-size="14.00" fill="#000000">F a</text>
</g>
<!-- F b -->
<g id="node6" class="node">
<title>F b</title>
<ellipse fill="none" stroke="#000000" cx="43" cy="-134" rx="27" ry="18"/>
<text text-anchor="middle" x="43" y="-129.8" font-family="Times,serif" font-size="14.00" fill="#000000">F b</text>
</g>
<!-- F a&#45;&gt;F b -->
<g id="edge2" class="edge">
<title>F a&#45;&gt;F b</title>
<path fill="none" stroke="#000000" d="M106.697,-134C98.4187,-134 89.1783,-134 80.3595,-134"/>
<polygon fill="#000000" stroke="#000000" points="80.2838,-130.5001 70.2837,-134 80.2837,-137.5001 80.2838,-130.5001"/>
</g>
</g>
</svg>
